HIERARCHY
ROOT Hips
{
	OFFSET -0.001795 -0.223333 0.028219
	CHANNELS 6 Xposition Yposition Zposition Zrotation Yrotation Xrotation 
	JOINT LeftUpLeg
	{
		OFFSET 0.069520 -0.091406 -0.006815
		CHANNELS 3 Zrotation Yrotation Xrotation
		JOINT LeftLeg
		{
			OFFSET 0.034277 -0.375199 -0.004496
			CHANNELS 3 Zrotation Yrotation Xrotation
			JOINT LeftFoot
			{
				OFFSET -0.013596 -0.397961 -0.043693
				CHANNELS 3 Zrotation Yrotation Xrotation
				JOINT LeftToe
				{
					OFFSET 0.026358 -0.055791 0.119288
					CHANNELS 3 Zrotation Yrotation Xrotation
					End Site
					{
						OFFSET 0.000000 0.000000 0.000000
					}
				}
			}
		}
	}
	JOINT RightUpLeg
	{
		OFFSET -0.067670 -0.090522 -0.004320
		CHANNELS 3 Zrotation Yrotation Xrotation
		JOINT RightLeg
		{
			OFFSET -0.038290 -0.382569 -0.008850
			CHANNELS 3 Zrotation Yrotation Xrotation
			JOINT RightFoot
			{
				OFFSET 0.015774 -0.398415 -0.042312
				CHANNELS 3 Zrotation Yrotation Xrotation
				JOINT RightToe
				{
					OFFSET -0.025372 -0.048144 0.123348
					CHANNELS 3 Zrotation Yrotation Xrotation
					End Site
					{
						OFFSET 0.000000 0.000000 0.000000
					}
				}
			}
		}
	}
	JOINT Spine
	{
		OFFSET -0.002533 0.108963 -0.026696
		CHANNELS 3 Zrotation Yrotation Xrotation
		JOINT Spine1
		{
			OFFSET 0.005487 0.135180 0.001092
			CHANNELS 3 Zrotation Yrotation Xrotation
			JOINT Spine2
			{
				OFFSET 0.001457 0.052922 0.025425
				CHANNELS 3 Zrotation Yrotation Xrotation
				JOINT Neck
				{
					OFFSET -0.002778 0.213870 -0.042857
					CHANNELS 3 Zrotation Yrotation Xrotation
					JOINT Head
					{
						OFFSET 0.005152 0.064970 0.051349
						CHANNELS 3 Zrotation Yrotation Xrotation
						End Site
						{
							OFFSET 0.000000 0.000000 0.000000
						}
					}
				}
				JOINT LeftShoulder
				{
					OFFSET 0.078845 0.121749 -0.034090
					CHANNELS 3 Zrotation Yrotation Xrotation
					JOINT LeftArm
					{
						OFFSET 0.090977 0.030469 -0.008868
						CHANNELS 3 Zrotation Yrotation Xrotation
						JOINT LeftForeArm
						{
							OFFSET 0.259612 -0.012772 -0.027456
							CHANNELS 3 Zrotation Yrotation Xrotation
							JOINT LeftHand
							{
								OFFSET 0.249234 0.008986 -0.001171
								CHANNELS 3 Zrotation Yrotation Xrotation
								End Site
								{
									OFFSET 0.000000 0.000000 0.000000
								}
							}
						}
					}
				}
				JOINT RightShoulder
				{
					OFFSET -0.081759 0.118833 -0.038615
					CHANNELS 3 Zrotation Yrotation Xrotation
					JOINT RightArm
					{
						OFFSET -0.096012 0.032551 -0.009143
						CHANNELS 3 Zrotation Yrotation Xrotation
						JOINT RightForeArm
						{
							OFFSET -0.253742 -0.013329 -0.021401
							CHANNELS 3 Zrotation Yrotation Xrotation
							JOINT RightHand
							{
								OFFSET -0.255298 0.007772 -0.005559
								CHANNELS 3 Zrotation Yrotation Xrotation
								End Site
								{
									OFFSET 0.000000 0.000000 0.000000
								}
							}
						}
					}
				}
			}
		}
	}
}
MOTION
Frames: 17
Frame Time: 0.050000
-0.039369 0.922330 0.181665 177.042515 2.117992 177.229009 7.332429 -9.417559 -1.745788 -14.000364 -13.490653 20.077406 44.151230 -22.982786 20.813632 0.000000 0.000000 0.000000 -13.259993 -25.612926 -5.909436 -35.608013 -30.288294 45.801483 110.030925 -28.394622 16.367950 0.000000 0.000000 0.000000 3.378639 -10.835907 24.778908 -1.157448 -1.292555 -35.469632 9.727358 16.833975 33.351817 38.616370 47.963932 0.972178 0.000000 0.000000 0.000000 6.867815 29.368265 96.472115 55.050385 -43.649593 -14.143349 32.314771 18.632397 7.897453 0.000000 0.000000 0.000000 -25.639511 -9.168966 -168.072472 -66.517155 6.496427 5.050022 48.141548 -46.851338 -36.627663 0.000000 0.000000 0.000000 
-0.021743 0.898407 0.181895 177.760554 3.636974 176.897307 13.359641 -13.641377 -3.655060 -22.011357 -15.826883 22.948165 63.406064 -24.888336 25.459391 0.000000 0.000000 0.000000 -10.289926 -18.967782 -1.926617 -29.599657 -28.535902 39.199978 109.495117 -17.584341 6.292089 0.000000 0.000000 0.000000 2.116722 -10.980041 25.999448 -4.445995 -6.453407 -34.955327 17.122114 21.080380 29.934917 40.490396 45.441716 15.685448 0.000000 0.000000 0.000000 3.058713 23.892301 81.341439 37.074074 -36.207837 -7.080838 29.720468 12.532878 5.609124 0.000000 0.000000 0.000000 -24.680574 -7.701652 -151.192789 -53.382806 -0.702349 6.803833 38.127622 -25.568980 -16.331074 0.000000 0.000000 0.000000 
-0.010065 0.882990 0.183177 177.539459 0.786009 176.514677 16.963681 -16.144175 -7.858716 -25.892520 -17.630190 27.041919 81.512953 -35.317717 28.556093 0.000000 0.000000 0.000000 -10.120734 -17.933446 2.467440 -21.981876 -28.404381 33.724403 113.948565 -5.488351 -3.661503 0.000000 0.000000 0.000000 2.544989 -10.864433 25.411690 -3.607198 -5.612614 -38.614735 14.563188 17.940454 32.584544 63.378275 51.374058 31.122541 0.000000 0.000000 0.000000 1.864688 25.167590 79.158397 39.201341 -27.529370 -5.481252 22.411723 14.718304 3.994500 0.000000 0.000000 0.000000 -23.811292 -1.504356 -143.639013 -47.693888 -0.215226 5.944211 34.247300 -15.148666 -9.133498 0.000000 0.000000 0.000000 
-0.007112 0.878981 0.184736 178.643015 1.503465 177.344116 20.162021 -17.570175 -14.378219 -32.844705 -20.303711 30.169624 87.123690 -68.788073 49.575503 0.000000 0.000000 0.000000 -8.947798 -16.526123 2.497910 -16.780089 -27.879621 30.162892 107.673169 -0.538534 -7.063536 0.000000 0.000000 0.000000 4.628041 -11.316753 24.695023 -5.332075 -9.300211 -39.237775 20.394700 24.545064 33.541323 41.769324 46.020241 22.860910 0.000000 0.000000 0.000000 -3.162782 20.782399 60.891855 29.795780 -29.655978 -4.903569 23.150996 13.285596 4.084448 0.000000 0.000000 0.000000 -17.458936 8.460095 -115.023706 -45.680127 -9.937608 9.206401 27.544220 0.347002 -2.677951 0.000000 0.000000 0.000000 
-0.008915 0.884735 0.187249 179.439822 1.609170 178.848144 20.798807 -18.102087 -16.358246 -31.048396 -19.565075 27.317881 93.155090 -85.925243 49.458987 0.000000 0.000000 0.000000 -8.454403 -15.885417 4.398702 -8.351955 -24.187141 21.790865 102.466866 1.348015 -13.610568 0.000000 0.000000 0.000000 6.459195 -10.147923 22.491740 -3.494942 -5.632457 -38.418679 16.598224 23.662380 32.365019 55.240225 47.424605 33.510999 0.000000 0.000000 0.000000 -4.385161 22.740275 64.868286 31.420536 -25.465372 -4.683868 23.710379 13.976281 4.204383 0.000000 0.000000 0.000000 -15.696051 6.807207 -129.550526 -47.078490 -0.003650 6.493169 30.919926 -3.069731 -3.225866 0.000000 0.000000 0.000000 
-0.012253 0.891631 0.191347 178.753316 4.311891 179.886761 13.470346 -12.584907 -17.981448 -31.293202 -21.687111 29.740167 -90.621518 -82.464758 -125.785703 0.000000 0.000000 0.000000 -8.586228 -15.617300 1.503957 -10.440726 -26.349757 25.725185 97.229207 0.988926 -8.805730 0.000000 0.000000 0.000000 6.042888 -9.026097 22.010980 -4.376545 -8.439933 -31.395795 16.808671 30.850355 23.680607 42.866315 45.402944 29.661285 0.000000 0.000000 0.000000 0.189217 22.713931 64.606017 32.459968 -28.308764 -4.875443 32.299432 14.075943 7.322454 0.000000 0.000000 0.000000 -12.988496 -1.307642 -147.797601 -50.015808 9.141318 4.778684 36.501347 -12.020753 -6.947974 0.000000 0.000000 0.000000 
-0.012857 0.892625 0.196267 178.546880 0.502416 -175.981486 4.992404 -8.922432 -19.622997 -21.683731 -20.159804 25.659071 -131.393214 -65.441284 -81.598648 0.000000 0.000000 0.000000 -6.414066 -14.714427 -3.308206 -12.561656 -31.555018 30.157548 107.367263 -3.718898 -5.147986 0.000000 0.000000 0.000000 6.880054 -7.837447 19.833733 -3.909370 -6.339305 -36.827894 16.900335 25.225476 29.847245 13.094715 40.545028 -2.355110 0.000000 0.000000 0.000000 -2.563305 21.959504 51.849091 33.314600 -37.517194 -9.488824 42.565634 15.109801 10.875674 0.000000 0.000000 0.000000 -3.319629 -21.465425 -159.683847 -42.086521 1.830598 6.190324 40.907279 -22.115372 -11.473971 0.000000 0.000000 0.000000 
-0.008398 0.896930 0.199954 179.960651 7.382347 -175.132100 1.138231 -5.333693 -15.599409 -13.095964 -14.876417 18.151433 140.756757 -61.861526 -10.983297 0.000000 0.000000 0.000000 -3.475880 -12.214332 -7.922631 -22.383068 -28.520102 35.682885 84.199317 -2.677788 -0.039312 0.000000 0.000000 0.000000 6.734773 -10.110660 22.130057 0.788920 -1.617600 -30.658460 5.308484 21.244327 21.478751 -19.623219 -49.625003 -18.242736 0.000000 0.000000 0.000000 54.443256 15.290858 -124.982192 62.186151 53.093592 20.149944 -54.962294 2.815672 -27.812669 0.000000 0.000000 0.000000 16.852620 -43.985973 107.452557 -47.659985 21.083411 -22.004275 -25.529160 -44.423775 13.893266 0.000000 0.000000 0.000000 
0.003748 0.918317 0.198869 -179.597242 15.543357 -175.034076 1.284633 -4.506123 -14.833708 -18.094000 -16.401399 18.452484 99.843360 -57.785684 22.888510 0.000000 0.000000 0.000000 -3.631502 -12.625849 -9.853492 -25.456237 -24.669741 36.007255 71.235974 -2.112588 8.230160 0.000000 0.000000 0.000000 -0.322819 -9.297475 25.757534 3.454897 -0.814297 -25.316108 4.291181 21.299031 18.447952 -24.355781 -43.949157 -12.216614 0.000000 0.000000 0.000000 36.762207 5.361274 -95.031315 30.527317 49.721376 9.054950 -45.977207 -17.602866 -9.194861 0.000000 0.000000 0.000000 18.227075 -32.308667 61.133567 -19.788931 43.345153 -13.866683 -41.460549 -16.501976 11.262576 0.000000 0.000000 0.000000 
0.018912 0.943417 0.194830 -177.677571 12.696866 -172.823400 3.316758 -6.366807 -17.794296 -20.007355 -17.559569 18.402271 80.996789 -63.789136 37.552829 0.000000 0.000000 0.000000 0.414237 -8.840201 -10.236511 -31.938667 -28.133692 41.568228 90.704045 -14.868927 12.408838 0.000000 0.000000 0.000000 -1.293889 -10.177264 26.362631 3.532148 -0.840723 -23.337593 6.002061 25.110517 17.793991 -37.864681 -55.014664 -6.326204 0.000000 0.000000 0.000000 37.543643 12.817616 -135.071867 60.473911 26.402922 15.362326 -40.683593 10.468356 -13.520435 0.000000 0.000000 0.000000 7.731802 -32.272160 78.701395 -32.368226 42.902521 -14.163789 -36.536485 -23.861960 12.019172 0.000000 0.000000 0.000000 
0.032736 0.954831 0.190567 -177.881028 9.625298 -170.189783 0.999455 -6.889391 -20.117146 -9.954259 -12.206708 13.168855 73.995847 -67.920807 35.492854 0.000000 0.000000 0.000000 -0.210131 -13.422433 -15.282567 -47.801948 -30.228308 53.293361 90.574083 -34.050274 30.003653 0.000000 0.000000 0.000000 -2.242884 -6.816006 23.078713 4.126940 -4.518997 -20.026568 4.547290 25.869755 15.665019 -21.683384 -48.836815 -17.014642 0.000000 0.000000 0.000000 41.291118 21.302243 -149.101182 67.869554 13.529889 8.229438 -23.603446 21.537147 -10.232137 0.000000 0.000000 0.000000 -5.277551 -28.372797 99.514872 -50.149439 36.266376 -12.949567 -16.810573 -39.618991 8.839839 0.000000 0.000000 0.000000 
0.042574 0.933595 0.183315 -176.438871 6.978231 -167.920434 4.103631 -10.343523 -24.464571 -13.281122 -14.042706 14.808949 -120.210268 -81.917913 -114.302385 0.000000 0.000000 0.000000 0.353199 -13.967697 -16.521184 -53.331110 -30.958357 57.147551 104.506198 -47.622803 25.524847 0.000000 0.000000 0.000000 -3.118767 -5.719208 21.520630 -0.815847 -4.899432 -22.947997 13.187057 30.629661 19.416152 -23.271108 -55.129852 -19.663163 0.000000 0.000000 0.000000 28.497460 34.396948 142.967961 55.638558 -35.123869 -16.026455 -1.613385 25.386639 -3.174797 0.000000 0.000000 0.000000 -32.600018 -14.915449 173.013072 -66.858202 -6.354808 15.191511 42.781507 -25.814773 -7.020225 0.000000 0.000000 0.000000 
0.043963 0.894599 0.169012 -178.159010 1.970685 -167.816677 1.763182 -11.011531 -25.551598 -16.347493 -17.133186 18.162201 -94.866727 -15.045425 -106.438616 0.000000 0.000000 0.000000 -2.643212 -16.768890 -14.432771 -55.246254 -30.538770 55.441921 137.175311 -59.750514 0.869586 0.000000 0.000000 0.000000 -3.756111 -6.410782 22.393708 1.192883 -1.713241 -27.629247 9.873653 35.461756 21.810100 9.112654 25.318885 -21.195487 0.000000 0.000000 0.000000 -7.826931 28.175991 32.200249 -18.822357 -25.363799 1.208897 15.160041 2.408946 2.697873 0.000000 0.000000 0.000000 -17.833558 12.251333 -89.045459 2.507565 -39.395704 -0.554326 27.964456 33.926398 -3.882722 0.000000 0.000000 0.000000 
0.038082 0.879664 0.148189 179.903453 -4.751613 -166.035319 -13.022291 12.686227 -28.375313 16.161347 18.242276 24.084254 -49.410583 -4.026181 -18.773920 0.000000 0.000000 0.000000 -8.619461 10.534088 -9.265220 31.156991 21.584654 35.529658 -65.649209 27.838862 41.092413 0.000000 0.000000 0.000000 3.450441 7.740523 24.178528 -6.460543 -1.730147 -35.011969 6.112543 21.545989 25.975409 7.594013 17.379082 -23.472401 0.000000 0.000000 0.000000 -11.726224 28.542378 25.063832 -24.209585 -22.641896 -0.583514 12.655451 -0.901935 1.712595 0.000000 0.000000 0.000000 -10.239325 14.159292 -71.373137 17.105810 -35.222998 -3.371723 14.600897 37.634147 -3.305251 0.000000 0.000000 0.000000 
0.029621 0.897214 0.120520 176.725079 -18.449016 -165.453812 -13.963361 8.156880 -25.305085 14.962852 15.639218 23.137376 -45.381017 -2.895621 -7.031611 0.000000 0.000000 0.000000 -12.923275 12.631614 -5.647130 32.099281 18.157565 27.875176 -59.482537 16.315911 48.186043 0.000000 0.000000 0.000000 4.487369 6.601043 23.805975 -4.774049 -1.028537 -29.866632 -1.174858 21.559643 20.987623 7.454723 4.733523 -22.108313 0.000000 0.000000 0.000000 -12.560763 20.667084 15.372907 -36.806379 -7.141747 -3.114593 11.622061 -18.750516 0.336092 0.000000 0.000000 0.000000 0.655037 12.143189 -52.725116 24.892621 -29.853529 -4.222377 11.894640 34.944870 -3.041310 0.000000 0.000000 0.000000 
0.026740 0.925924 0.088587 173.788221 -33.285901 -163.507762 -13.886908 6.040525 -24.305502 13.827954 13.010893 23.053755 -30.235177 -4.009633 9.601668 0.000000 0.000000 0.000000 -12.540364 9.721811 -6.696178 36.563267 17.508126 38.887853 -50.384625 -4.169768 51.417534 0.000000 0.000000 0.000000 4.237725 4.061328 20.679522 -7.945682 -1.041885 -23.999036 0.637406 21.401613 16.601709 10.951209 -1.096059 -11.812306 0.000000 0.000000 0.000000 -20.097680 16.577943 11.846389 -36.735292 2.413871 -7.946733 2.852789 -35.849453 2.349030 0.000000 0.000000 0.000000 10.370007 5.080599 -35.738748 31.836045 -21.689542 -4.865046 13.006899 32.419692 -2.121611 0.000000 0.000000 0.000000 
0.031763 0.939224 0.056585 172.303523 -49.373521 -162.732882 -8.695602 5.575735 -23.027103 8.941141 13.858645 25.208948 -40.771062 -8.751991 23.972615 0.000000 0.000000 0.000000 -7.521986 4.754942 -12.453232 53.464446 17.434372 58.760881 -48.164919 -23.383526 64.614277 0.000000 0.000000 0.000000 4.513671 4.926763 22.927522 -0.391442 -0.554996 -27.405744 -5.819058 16.756085 21.346195 10.947667 -8.901770 -17.052793 0.000000 0.000000 0.000000 -18.465293 15.985199 8.721383 -38.707860 -0.148403 -8.172057 0.623304 -40.312267 5.409652 0.000000 0.000000 0.000000 14.310990 2.662674 -34.093871 37.442996 -21.188565 -6.049936 10.429310 30.013509 -1.988015 0.000000 0.000000 0.000000 
